<svg width="50" height="46" viewBox="0 0 50 46" fill="none" xmlns="http://www.w3.org/2000/svg">
<path d="M8.04165 13.89C7.62915 15.4024 7.00386 16.1325 5.51177 14.3881C4.01968 12.6436 1.96577 7.09697 3.65913 4.44756C5.1314 2.14384 9.87446 5.04814 11.4082 6.49931C13.2608 8.25234 11.4257 9.20478 11.4257 9.20478C9.69663 10.1407 8.75874 11.2604 8.04165 13.8899M42.1067 13.8899C42.5192 15.4023 43.1445 16.1324 44.6366 14.388C46.1288 12.6434 48.1825 7.09697 46.4891 4.44756C45.0169 2.14384 40.2738 5.04814 38.7401 6.49931C36.8876 8.25234 38.7225 9.20478 38.7225 9.20478C40.4517 10.1407 41.3895 11.2604 42.1067 13.8899ZM17.8632 36.0682C15.7166 33.2633 15.7339 29.9848 17.7101 27.0357C19.5375 24.3088 19.9642 21.7293 18.7469 20.0751C18.3294 15.3198 14.079 15.8311 11.9728 16.7992C9.81724 17.7899 9.19546 18.9364 9.19546 18.9364C8.45835 19.7718 9.18511 20.6384 9.93257 20.2632C10.5767 18.9365 11.2486 18.295 11.9473 18.3222C13.1774 21.314 15.261 22.1134 18.0688 20.9872C18.7384 22.0495 18.3715 24.0591 16.6928 26.4492C14.1678 30.0446 14.7094 33.7718 16.9079 37.1268C17.485 37.8811 18.4404 36.8225 17.8632 36.0682ZM33.2499 37.1268C35.4482 33.7718 35.9898 30.0447 33.4648 26.4492C31.7862 24.0591 31.4193 22.0495 32.0889 20.9872C34.8966 22.1134 36.9803 21.314 38.2104 18.3222C38.9091 18.295 39.5809 18.9365 40.225 20.2632C40.9726 20.6384 41.6994 19.7718 40.9623 18.9364C40.9623 18.9364 40.3405 17.7899 38.1849 16.7992C36.0788 15.8311 31.8283 15.3198 31.4107 20.0751C30.1935 21.7294 30.6203 24.3088 32.4476 27.0357C34.4237 29.9848 34.4412 33.2633 32.2945 36.0682C31.7173 36.8225 32.6726 37.8811 33.2499 37.1268ZM24.1566 38.394C23.6444 38.6967 22.8164 39.1157 21.5657 39.6154C20.315 40.1152 21.6278 40.6296 22.5603 40.3262C23.4928 40.0227 24.3375 39.3186 25.1633 39.3186C25.9891 39.3186 27.52 40.4933 28.2552 40.5092C28.9906 40.5252 29.5228 39.9139 28.9281 39.7462C28.3333 39.5785 25.9315 38.5312 25.8131 38.2859C25.6949 38.0408 25.8163 36.5338 25.8163 36.5338C25.8456 35.6503 27.4254 34.9489 28.0131 33.0155C31.433 31.9046 30.4746 28.8849 27.6429 28.8849H22.2493C19.7922 28.8849 18.7558 31.9046 22.4587 33.1244C22.9289 34.6842 24.3334 35.7727 24.3567 36.6106C24.3567 36.6106 24.6688 38.0914 24.1566 38.394ZM8.95991 24.9669C9.54956 25.0019 10.3852 22.9021 9.15649 22.4415C8.26645 22.3576 7.91968 24.6814 8.95991 24.9669ZM10.0466 26.6843C9.42808 26.0464 8.96421 26.2204 8.9062 27.4769C8.84819 28.7333 9.54409 29.4679 10.0466 29.6225C10.5493 29.7771 10.9746 29.5452 11.0325 28.656C11.0904 27.7667 10.6653 27.3222 10.0466 26.6843ZM41.032 22.4414C39.8034 22.9021 40.639 25.0019 41.2286 24.9668C42.2689 24.6814 41.9221 22.3576 41.0321 22.4414M39.1561 28.656C39.2141 29.5452 39.6394 29.7771 40.1419 29.6225C40.6446 29.4679 41.3405 28.7333 41.2826 27.4769C41.2245 26.2204 40.7606 26.0464 40.1419 26.6843C39.5234 27.3222 39.0982 27.7668 39.1561 28.656ZM18.4909 10.9926C16.7212 10.8083 15.3874 11.6132 15.4618 13.8398C16.5619 15.0149 19.591 12.1677 18.4909 10.9926ZM34.7191 13.7108C34.7923 11.5173 33.4784 10.7244 31.735 10.9059C30.6513 12.0635 33.6354 14.8685 34.7191 13.7108ZM25.8663 10.3492C25.8663 8.99619 24.3082 8.99619 24.3082 10.3492V15.9187C24.3082 17.014 25.8663 17.014 25.8663 15.9187V10.3492ZM3.28472 0.714254C-3.30337 5.04697 1.43101 15.1403 5.23315 20.0091C3.32554 22.6972 4.10229 25.1745 6.40298 28.6367C9.20708 32.8564 6.53433 38.977 12.9327 41.368C16.1021 42.5522 19.4184 45.8909 25.1701 45.8909C30.9217 45.8909 30.4797 44.4095 37.4916 41.0308C44.5034 37.6521 41.1027 31.6591 43.1021 29.4922C46.1982 26.1364 46.614 23.6982 45.1979 19.6731C52.0533 10.2569 50.2702 2.9706 47.7798 1.37851C43.4686 -1.37774 37.849 2.50517 34.8508 5.36093C28.2083 3.25927 21.859 3.19072 15.4832 5.25253C15.4832 5.25253 7.43042 -1.99161 3.28472 0.714254ZM15.3261 5.99824C21.7257 3.86367 28.4005 3.93007 35.0192 6.10888C38.0174 3.25302 43.1681 -0.696098 47.4251 1.9331C49.9399 3.48632 51.312 10.1572 44.4567 19.5735C45.7861 23.0706 45.9094 25.837 42.6396 29.0237C40.2183 31.3836 44.0268 37.2164 37.2057 40.4378C30.1677 43.7616 30.9218 45.2327 25.1701 45.2327C19.4183 45.2327 16.3345 41.9287 13.1626 40.7511C7.14673 38.5177 9.85474 32.2721 6.86694 28.0971C4.4477 24.7166 4.14321 22.6765 6.05073 19.9884C2.24868 15.1196 -2.59888 5.76689 3.55093 1.32793C7.28237 -1.36543 15.3261 5.99824 15.3261 5.99824Z" fill="#7431FA" fill-opacity="0.5"/>
</svg>
