<svg width="287" height="21" viewBox="0 0 287 21" fill="none" xmlns="http://www.w3.org/2000/svg">
<g filter="url(#filter0_d_19_7)">
<path d="M3.54883 18L1.44922 0.8125H3.79297L5.05273 13.0586L6.6543 0.8125H8.76367L10.375 13.0586L11.4883 0.8125H13.8418L11.8691 18H9.26172L7.73828 6.57422L6.15625 18H3.54883ZM15.5703 18V0.8125H21.332V3.06836H18.1875V8.06836H21.1758V10.2754H18.1875V15.7441H21.4492V18H15.5703ZM23.3828 18V0.8125H26V15.7734H29.3105V18H23.3828ZM34.0566 18.1953C33.2233 18.1953 32.5299 18.0033 31.9766 17.6191C31.4232 17.235 31.0065 16.6751 30.7266 15.9395C30.4531 15.1973 30.3164 14.3021 30.3164 13.2539V5.76367C30.3164 4.97591 30.3815 4.26628 30.5117 3.63477C30.6419 3.00326 30.8535 2.46289 31.1465 2.01367C31.4395 1.56445 31.8301 1.2194 32.3184 0.978516C32.8066 0.73763 33.4089 0.617188 34.125 0.617188C34.776 0.617188 35.3294 0.724609 35.7852 0.939453C36.2474 1.14779 36.6217 1.45052 36.9082 1.84766C37.2012 2.24479 37.4128 2.72656 37.543 3.29297C37.6797 3.85286 37.748 4.48438 37.748 5.1875V7.55078H35.2188V5.35352C35.2188 4.50716 35.1471 3.88542 35.0039 3.48828C34.8607 3.08464 34.5742 2.88281 34.1445 2.88281C33.6693 2.88281 33.3503 3.10091 33.1875 3.53711C33.0312 3.9668 32.9531 4.56901 32.9531 5.34375V13.3711C32.9531 13.9701 32.9857 14.4616 33.0508 14.8457C33.1224 15.2233 33.2396 15.5033 33.4023 15.6855C33.5651 15.8613 33.793 15.9492 34.0859 15.9492C34.5286 15.9492 34.8281 15.7409 34.9844 15.3242C35.1406 14.9076 35.2188 14.2467 35.2188 13.3418V10.8809H37.7871V13.3125C37.7871 14.3997 37.6602 15.3079 37.4062 16.0371C37.1523 16.7598 36.7487 17.3001 36.1953 17.6582C35.6484 18.0163 34.9355 18.1953 34.0566 18.1953ZM43.6172 18.1953C42.7253 18.1953 41.9961 18.0065 41.4297 17.6289C40.8698 17.2513 40.4564 16.6914 40.1895 15.9492C39.9225 15.207 39.7891 14.2891 39.7891 13.1953V5.33398C39.7891 4.3444 39.9193 3.49805 40.1797 2.79492C40.4401 2.0918 40.8535 1.55143 41.4199 1.17383C41.9863 0.796224 42.7285 0.607422 43.6465 0.607422C44.3366 0.607422 44.9193 0.714844 45.3945 0.929688C45.8698 1.14453 46.2539 1.45703 46.5469 1.86719C46.8398 2.27083 47.0514 2.76562 47.1816 3.35156C47.3184 3.93099 47.3867 4.5918 47.3867 5.33398V13.1953C47.3867 14.2891 47.2565 15.207 46.9961 15.9492C46.7422 16.6914 46.3385 17.2513 45.7852 17.6289C45.2318 18.0065 44.5091 18.1953 43.6172 18.1953ZM43.6172 15.9297C43.9427 15.9297 44.1868 15.832 44.3496 15.6367C44.5124 15.4414 44.6198 15.1452 44.6719 14.748C44.7305 14.3444 44.7598 13.8366 44.7598 13.2246V5.2168C44.7598 4.4681 44.6882 3.89193 44.5449 3.48828C44.4082 3.07812 44.1087 2.87305 43.6465 2.87305C43.1712 2.87305 42.849 3.07161 42.6797 3.46875C42.5104 3.85938 42.4258 4.4388 42.4258 5.20703V13.2246C42.4258 13.8496 42.4518 14.3639 42.5039 14.7676C42.5625 15.1647 42.6764 15.4577 42.8457 15.6465C43.0215 15.8353 43.2786 15.9297 43.6172 15.9297ZM49.7695 18V0.8125H53.0215L55.4629 13.3711L57.7578 0.8125H61.0293V18H58.6953V11.5938L58.793 5.71484L56.4785 17.9219H54.3984L51.9863 5.71484L52.084 11.5938V18H49.7695ZM63.6172 18V0.8125H69.3789V3.06836H66.2344V8.06836H69.2227V10.2754H66.2344V15.7441H69.4961V18H63.6172ZM75.9219 18V3.07812H73.9102V0.8125H80.4629V3.07812H78.5293V18H75.9219ZM85.5508 18.1953C84.6589 18.1953 83.9297 18.0065 83.3633 17.6289C82.8034 17.2513 82.39 16.6914 82.123 15.9492C81.8561 15.207 81.7227 14.2891 81.7227 13.1953V5.33398C81.7227 4.3444 81.8529 3.49805 82.1133 2.79492C82.3737 2.0918 82.7871 1.55143 83.3535 1.17383C83.9199 0.796224 84.6621 0.607422 85.5801 0.607422C86.2702 0.607422 86.8529 0.714844 87.3281 0.929688C87.8034 1.14453 88.1875 1.45703 88.4805 1.86719C88.7734 2.27083 88.985 2.76562 89.1152 3.35156C89.252 3.93099 89.3203 4.5918 89.3203 5.33398V13.1953C89.3203 14.2891 89.1901 15.207 88.9297 15.9492C88.6758 16.6914 88.2721 17.2513 87.7188 17.6289C87.1654 18.0065 86.4427 18.1953 85.5508 18.1953ZM85.5508 15.9297C85.8763 15.9297 86.1204 15.832 86.2832 15.6367C86.446 15.4414 86.5534 15.1452 86.6055 14.748C86.6641 14.3444 86.6934 13.8366 86.6934 13.2246V5.2168C86.6934 4.4681 86.6217 3.89193 86.4785 3.48828C86.3418 3.07812 86.0423 2.87305 85.5801 2.87305C85.1048 2.87305 84.7826 3.07161 84.6133 3.46875C84.444 3.85938 84.3594 4.4388 84.3594 5.20703V13.2246C84.3594 13.8496 84.3854 14.3639 84.4375 14.7676C84.4961 15.1647 84.61 15.4577 84.7793 15.6465C84.9551 15.8353 85.2122 15.9297 85.5508 15.9297ZM95.2969 18V0.8125H99.623C100.521 0.8125 101.192 0.988281 101.635 1.33984C102.077 1.69141 102.367 2.20573 102.504 2.88281C102.647 3.5599 102.719 4.38672 102.719 5.36328C102.719 6.3724 102.615 7.16667 102.406 7.74609C102.204 8.31901 101.788 8.70312 101.156 8.89844C101.456 8.95052 101.706 9.07422 101.908 9.26953C102.11 9.45833 102.273 9.73828 102.396 10.1094C102.52 10.474 102.608 10.946 102.66 11.5254C102.719 12.0983 102.748 12.8014 102.748 13.6348C102.748 13.6999 102.748 13.8822 102.748 14.1816C102.748 14.4811 102.748 14.8359 102.748 15.2461C102.755 15.6497 102.761 16.0534 102.768 16.457C102.774 16.8607 102.784 17.2057 102.797 17.4922C102.81 17.7786 102.826 17.9479 102.846 18H100.229C100.209 17.9674 100.193 17.8014 100.18 17.502C100.173 17.196 100.163 16.8086 100.15 16.3398C100.144 15.8711 100.137 15.3665 100.131 14.8262C100.131 14.2858 100.131 13.7552 100.131 13.2344C100.131 12.707 100.131 12.2415 100.131 11.8379C100.131 11.3236 100.092 10.9362 100.014 10.6758C99.9421 10.4089 99.8053 10.2233 99.6035 10.1191C99.4082 10.015 99.125 9.95312 98.7539 9.93359L97.9141 9.88477V18H95.2969ZM97.9238 7.85352H98.9688C99.2878 7.85352 99.5286 7.7819 99.6914 7.63867C99.8607 7.49544 99.9746 7.23177 100.033 6.84766C100.098 6.46354 100.131 5.91016 100.131 5.1875V5.08008C100.131 4.47461 100.102 4.00911 100.043 3.68359C99.9844 3.35807 99.8607 3.13346 99.6719 3.00977C99.4896 2.88607 99.2031 2.82422 98.8125 2.82422H97.9238V7.85352ZM104.984 18V0.8125H110.746V3.06836H107.602V8.06836H110.59V10.2754H107.602V15.7441H110.863V18H104.984ZM115.932 18.1953C115.215 18.1953 114.617 18.0846 114.135 17.8633C113.66 17.6354 113.282 17.3066 113.002 16.877C112.729 16.4408 112.533 15.9134 112.416 15.2949C112.299 14.6699 112.24 13.9603 112.24 13.166V11.6328H114.721V13.3613C114.721 14.2858 114.799 14.9499 114.955 15.3535C115.111 15.7572 115.421 15.959 115.883 15.959C116.195 15.959 116.43 15.8874 116.586 15.7441C116.749 15.5944 116.856 15.36 116.908 15.041C116.967 14.7155 116.996 14.2923 116.996 13.7715C116.996 13.127 116.859 12.5378 116.586 12.0039C116.319 11.4701 115.912 10.9167 115.365 10.3438L114.096 9.03516C113.744 8.67057 113.425 8.2832 113.139 7.87305C112.859 7.46289 112.634 7.00716 112.465 6.50586C112.302 5.99805 112.221 5.43164 112.221 4.80664C112.221 3.90169 112.331 3.13672 112.553 2.51172C112.774 1.88672 113.148 1.41471 113.676 1.0957C114.203 0.770182 114.926 0.607422 115.844 0.607422C116.534 0.607422 117.1 0.714844 117.543 0.929688C117.992 1.13802 118.34 1.44727 118.588 1.85742C118.842 2.26107 119.021 2.75586 119.125 3.3418C119.229 3.92122 119.281 4.58529 119.281 5.33398V6.39844H116.869V5.16797C116.869 4.64714 116.84 4.21419 116.781 3.86914C116.729 3.52409 116.628 3.26693 116.479 3.09766C116.329 2.92188 116.111 2.83398 115.824 2.83398C115.551 2.83398 115.329 2.89583 115.16 3.01953C114.991 3.13672 114.867 3.32227 114.789 3.57617C114.717 3.82357 114.682 4.14583 114.682 4.54297C114.682 4.90104 114.727 5.21029 114.818 5.4707C114.91 5.73112 115.049 5.98177 115.238 6.22266C115.427 6.46354 115.661 6.73372 115.941 7.0332L117.357 8.56641C118.035 9.29557 118.562 10.054 118.939 10.8418C119.317 11.6296 119.506 12.5085 119.506 13.4785C119.506 14.5072 119.395 15.373 119.174 16.0762C118.952 16.7728 118.581 17.3001 118.061 17.6582C117.54 18.0163 116.83 18.1953 115.932 18.1953ZM124.965 18.1953C124.073 18.1953 123.344 18.0065 122.777 17.6289C122.217 17.2513 121.804 16.6914 121.537 15.9492C121.27 15.207 121.137 14.2891 121.137 13.1953V5.33398C121.137 4.3444 121.267 3.49805 121.527 2.79492C121.788 2.0918 122.201 1.55143 122.768 1.17383C123.334 0.796224 124.076 0.607422 124.994 0.607422C125.684 0.607422 126.267 0.714844 126.742 0.929688C127.217 1.14453 127.602 1.45703 127.895 1.86719C128.188 2.27083 128.399 2.76562 128.529 3.35156C128.666 3.93099 128.734 4.5918 128.734 5.33398V13.1953C128.734 14.2891 128.604 15.207 128.344 15.9492C128.09 16.6914 127.686 17.2513 127.133 17.6289C126.579 18.0065 125.857 18.1953 124.965 18.1953ZM124.965 15.9297C125.29 15.9297 125.535 15.832 125.697 15.6367C125.86 15.4414 125.967 15.1452 126.02 14.748C126.078 14.3444 126.107 13.8366 126.107 13.2246V5.2168C126.107 4.4681 126.036 3.89193 125.893 3.48828C125.756 3.07812 125.456 2.87305 124.994 2.87305C124.519 2.87305 124.197 3.07161 124.027 3.46875C123.858 3.85938 123.773 4.4388 123.773 5.20703V13.2246C123.773 13.8496 123.799 14.3639 123.852 14.7676C123.91 15.1647 124.024 15.4577 124.193 15.6465C124.369 15.8353 124.626 15.9297 124.965 15.9297ZM134.789 18.1953C133.897 18.1953 133.171 18.0293 132.611 17.6973C132.051 17.3587 131.641 16.8509 131.381 16.1738C131.12 15.4902 130.99 14.6276 130.99 13.5859V0.8125H133.607V13.5371C133.607 14.0189 133.627 14.4421 133.666 14.8066C133.712 15.1712 133.816 15.4544 133.979 15.6562C134.141 15.8581 134.408 15.959 134.779 15.959C135.15 15.959 135.417 15.8613 135.58 15.666C135.749 15.4642 135.854 15.181 135.893 14.8164C135.932 14.4518 135.951 14.0254 135.951 13.5371V0.8125H138.568V13.5859C138.568 14.6276 138.438 15.4902 138.178 16.1738C137.924 16.8509 137.517 17.3587 136.957 17.6973C136.404 18.0293 135.681 18.1953 134.789 18.1953ZM141.02 18V0.8125H145.346C146.244 0.8125 146.915 0.988281 147.357 1.33984C147.8 1.69141 148.09 2.20573 148.227 2.88281C148.37 3.5599 148.441 4.38672 148.441 5.36328C148.441 6.3724 148.337 7.16667 148.129 7.74609C147.927 8.31901 147.51 8.70312 146.879 8.89844C147.178 8.95052 147.429 9.07422 147.631 9.26953C147.833 9.45833 147.995 9.73828 148.119 10.1094C148.243 10.474 148.331 10.946 148.383 11.5254C148.441 12.0983 148.471 12.8014 148.471 13.6348C148.471 13.6999 148.471 13.8822 148.471 14.1816C148.471 14.4811 148.471 14.8359 148.471 15.2461C148.477 15.6497 148.484 16.0534 148.49 16.457C148.497 16.8607 148.507 17.2057 148.52 17.4922C148.533 17.7786 148.549 17.9479 148.568 18H145.951C145.932 17.9674 145.915 17.8014 145.902 17.502C145.896 17.196 145.886 16.8086 145.873 16.3398C145.867 15.8711 145.86 15.3665 145.854 14.8262C145.854 14.2858 145.854 13.7552 145.854 13.2344C145.854 12.707 145.854 12.2415 145.854 11.8379C145.854 11.3236 145.814 10.9362 145.736 10.6758C145.665 10.4089 145.528 10.2233 145.326 10.1191C145.131 10.015 144.848 9.95312 144.477 9.93359L143.637 9.88477V18H141.02ZM143.646 7.85352H144.691C145.01 7.85352 145.251 7.7819 145.414 7.63867C145.583 7.49544 145.697 7.23177 145.756 6.84766C145.821 6.46354 145.854 5.91016 145.854 5.1875V5.08008C145.854 4.47461 145.824 4.00911 145.766 3.68359C145.707 3.35807 145.583 3.13346 145.395 3.00977C145.212 2.88607 144.926 2.82422 144.535 2.82422H143.646V7.85352ZM154.232 18.1953C153.399 18.1953 152.706 18.0033 152.152 17.6191C151.599 17.235 151.182 16.6751 150.902 15.9395C150.629 15.1973 150.492 14.3021 150.492 13.2539V5.76367C150.492 4.97591 150.557 4.26628 150.688 3.63477C150.818 3.00326 151.029 2.46289 151.322 2.01367C151.615 1.56445 152.006 1.2194 152.494 0.978516C152.982 0.73763 153.585 0.617188 154.301 0.617188C154.952 0.617188 155.505 0.724609 155.961 0.939453C156.423 1.14779 156.798 1.45052 157.084 1.84766C157.377 2.24479 157.589 2.72656 157.719 3.29297C157.855 3.85286 157.924 4.48438 157.924 5.1875V7.55078H155.395V5.35352C155.395 4.50716 155.323 3.88542 155.18 3.48828C155.036 3.08464 154.75 2.88281 154.32 2.88281C153.845 2.88281 153.526 3.10091 153.363 3.53711C153.207 3.9668 153.129 4.56901 153.129 5.34375V13.3711C153.129 13.9701 153.161 14.4616 153.227 14.8457C153.298 15.2233 153.415 15.5033 153.578 15.6855C153.741 15.8613 153.969 15.9492 154.262 15.9492C154.704 15.9492 155.004 15.7409 155.16 15.3242C155.316 14.9076 155.395 14.2467 155.395 13.3418V10.8809H157.963V13.3125C157.963 14.3997 157.836 15.3079 157.582 16.0371C157.328 16.7598 156.924 17.3001 156.371 17.6582C155.824 18.0163 155.111 18.1953 154.232 18.1953ZM160.18 18V0.8125H165.941V3.06836H162.797V8.06836H165.785V10.2754H162.797V15.7441H166.059V18H160.18ZM171.586 18V0.8125H174.203V7.76562H176.547V0.8125H179.164V18H176.547V10.0117H174.203V18H171.586ZM185.414 18.1953C184.522 18.1953 183.796 18.0293 183.236 17.6973C182.676 17.3587 182.266 16.8509 182.006 16.1738C181.745 15.4902 181.615 14.6276 181.615 13.5859V0.8125H184.232V13.5371C184.232 14.0189 184.252 14.4421 184.291 14.8066C184.337 15.1712 184.441 15.4544 184.604 15.6562C184.766 15.8581 185.033 15.959 185.404 15.959C185.775 15.959 186.042 15.8613 186.205 15.666C186.374 15.4642 186.479 15.181 186.518 14.8164C186.557 14.4518 186.576 14.0254 186.576 13.5371V0.8125H189.193V13.5859C189.193 14.6276 189.063 15.4902 188.803 16.1738C188.549 16.8509 188.142 17.3587 187.582 17.6973C187.029 18.0293 186.306 18.1953 185.414 18.1953ZM191.645 18V0.8125H194.896L197.338 13.3711L199.633 0.8125H202.904V18H200.57V11.5938L200.668 5.71484L198.354 17.9219H196.273L193.861 5.71484L193.959 11.5938V18H191.645ZM204.477 18L206.928 0.8125H210.385L212.992 18H210.551L210.141 14.9336H207.367L206.996 18H204.477ZM207.621 12.834H209.867L208.715 4.20117H208.676L207.621 12.834ZM214.555 18V0.8125H216.605L220.248 11.125L220.062 6.4375V0.8125H222.416V18H220.561L216.82 7.32617L216.967 11.8379V18H214.555ZM229.857 18L227.758 0.8125H230.102L231.361 13.0586L232.963 0.8125H235.072L236.684 13.0586L237.797 0.8125H240.15L238.178 18H235.57L234.047 6.57422L232.465 18H229.857ZM241.879 18V0.8125H247.641V3.06836H244.496V8.06836H247.484V10.2754H244.496V15.7441H247.758V18H241.879ZM249.691 18V0.8125H253.412C254.278 0.8125 254.968 0.945964 255.482 1.21289C255.997 1.47331 256.368 1.88997 256.596 2.46289C256.83 3.0293 256.947 3.77474 256.947 4.69922V5.22656C256.947 6.11849 256.83 6.85417 256.596 7.43359C256.368 8.00651 255.984 8.4069 255.443 8.63477C255.893 8.78451 256.251 9.05469 256.518 9.44531C256.791 9.82943 256.986 10.3014 257.104 10.8613C257.221 11.4147 257.279 12.0234 257.279 12.6875V13.127C257.273 14.2728 257.139 15.207 256.879 15.9297C256.618 16.6458 256.212 17.1699 255.658 17.502C255.105 17.834 254.382 18 253.49 18H249.691ZM252.309 15.9688H253.236C253.581 15.9688 253.855 15.8939 254.057 15.7441C254.265 15.5879 254.415 15.3307 254.506 14.9727C254.597 14.6146 254.643 14.1263 254.643 13.5078V12.1211C254.643 11.2878 254.561 10.6823 254.398 10.3047C254.242 9.92057 253.913 9.72852 253.412 9.72852H252.309V15.9688ZM252.309 7.76562H253.275C253.503 7.76562 253.689 7.73307 253.832 7.66797C253.975 7.60286 254.086 7.49219 254.164 7.33594C254.242 7.17318 254.294 6.94857 254.32 6.66211C254.353 6.37565 254.369 6.01107 254.369 5.56836V4.5332C254.369 4.07096 254.327 3.7194 254.242 3.47852C254.158 3.23763 254.027 3.07487 253.852 2.99023C253.682 2.9056 253.461 2.86328 253.188 2.86328H252.309V7.76562ZM262.436 18.1953C261.719 18.1953 261.12 18.0846 260.639 17.8633C260.163 17.6354 259.786 17.3066 259.506 16.877C259.232 16.4408 259.037 15.9134 258.92 15.2949C258.803 14.6699 258.744 13.9603 258.744 13.166V11.6328H261.225V13.3613C261.225 14.2858 261.303 14.9499 261.459 15.3535C261.615 15.7572 261.924 15.959 262.387 15.959C262.699 15.959 262.934 15.8874 263.09 15.7441C263.253 15.5944 263.36 15.36 263.412 15.041C263.471 14.7155 263.5 14.2923 263.5 13.7715C263.5 13.127 263.363 12.5378 263.09 12.0039C262.823 11.4701 262.416 10.9167 261.869 10.3438L260.6 9.03516C260.248 8.67057 259.929 8.2832 259.643 7.87305C259.363 7.46289 259.138 7.00716 258.969 6.50586C258.806 5.99805 258.725 5.43164 258.725 4.80664C258.725 3.90169 258.835 3.13672 259.057 2.51172C259.278 1.88672 259.652 1.41471 260.18 1.0957C260.707 0.770182 261.43 0.607422 262.348 0.607422C263.038 0.607422 263.604 0.714844 264.047 0.929688C264.496 1.13802 264.844 1.44727 265.092 1.85742C265.346 2.26107 265.525 2.75586 265.629 3.3418C265.733 3.92122 265.785 4.58529 265.785 5.33398V6.39844H263.373V5.16797C263.373 4.64714 263.344 4.21419 263.285 3.86914C263.233 3.52409 263.132 3.26693 262.982 3.09766C262.833 2.92188 262.615 2.83398 262.328 2.83398C262.055 2.83398 261.833 2.89583 261.664 3.01953C261.495 3.13672 261.371 3.32227 261.293 3.57617C261.221 3.82357 261.186 4.14583 261.186 4.54297C261.186 4.90104 261.231 5.21029 261.322 5.4707C261.413 5.73112 261.553 5.98177 261.742 6.22266C261.931 6.46354 262.165 6.73372 262.445 7.0332L263.861 8.56641C264.538 9.29557 265.066 10.054 265.443 10.8418C265.821 11.6296 266.01 12.5085 266.01 13.4785C266.01 14.5072 265.899 15.373 265.678 16.0762C265.456 16.7728 265.085 17.3001 264.564 17.6582C264.044 18.0163 263.334 18.1953 262.436 18.1953ZM267.914 18V0.8125H270.531V18H267.914ZM274.066 18V3.07812H272.055V0.8125H278.607V3.07812H276.674V18H274.066ZM280.082 18V0.8125H285.844V3.06836H282.699V8.06836H285.688V10.2754H282.699V15.7441H285.961V18H280.082Z" fill="#050505" fill-opacity="0.5" shape-rendering="crispEdges"/>
</g>
<defs>
<filter id="filter0_d_19_7" x="0.449219" y="0.607422" width="286.512" height="19.5879" filterUnits="userSpaceOnUse" color-interpolation-filters="sRGB">
<feFlood flood-opacity="0" result="BackgroundImageFix"/>
<feColorMatrix in="SourceAlpha" type="matrix" values="0 0 0 0 0 0 0 0 0 0 0 0 0 0 0 0 0 0 127 0" result="hardAlpha"/>
<feOffset dy="1"/>
<feGaussianBlur stdDeviation="0.5"/>
<feComposite in2="hardAlpha" operator="out"/>
<feColorMatrix type="matrix" values="0 0 0 0 0 0 0 0 0 0 0 0 0 0 0 0 0 0 0.25 0"/>
<feBlend mode="normal" in2="BackgroundImageFix" result="effect1_dropShadow_19_7"/>
<feBlend mode="normal" in="SourceGraphic" in2="effect1_dropShadow_19_7" result="shape"/>
</filter>
</defs>
</svg>
